# xmcd
#
# Track frame offsets:
#	150
#	25663
#	44853
#	62959
#	81996
#	102293
#	121820
#	136109
#	157044
#	175751
#	194204
#	209611
#
# Disc length: 3127 seconds
#
# Revision: 2
# Processed by: cddbd v1.5.2PL0 Copyright (c) Steve Scherf et al.
# Submitted via: audiograbber 1.83.01
#
DISCID=b20c350c
DTITLE=CD Pool - Urban November 2010 CD2
DYEAR=2010
DGENRE=R&B
TTITLE0=Chris Brown, Drake, Kanye West and Andre 3000 - Deuces (Dirty Remix)
TTITLE1=Keri Hilson - Breaking Point
TTITLE2=Anthony David Ft Algebra and Phonte - 4Evermore
TTITLE3=Blak Peppa - Champagne Campaign (Extended Main Mix)
TTITLE4=Dreamteam Ft Priceless - Hands Up (Extended Mix)
TTITLE5=2000 Fast Women - Letters From Vienna (Warbox Dungle Vocal Ting)
TTITLE6=Baby Blue Ft Sean Starr - Double Up
TTITLE7=Bang On! - Hands High
TTITLE8=Parris and Vanucci - Disco Of Love
TTITLE9=Bashiyra - Don't Get In My Face (Big Herb Remix)
TTITLE10=Mr Midas - Try Make Me Slow Down (Sticky Remix)
TTITLE11=Lil H - One  More Chance (DJ Naughty Remix)
EXTD=
EXTT0=
EXTT1=
EXTT2=
EXTT3=
EXTT4=
EXTT5=
EXTT6=
EXTT7=
EXTT8=
EXTT9=
EXTT10=
EXTT11=
PLAYORDER=
